<?xml version="1.0" encoding="iso-8859-1"?>
<!-- Generator: Adobe Illustrator 19.0.0, SVG Export Plug-In . SVG Version: 6.00 Build 0)  -->
<svg version="1.1" id="Layer_1" xmlns="http://www.w3.org/2000/svg" xmlns:xlink="http://www.w3.org/1999/xlink" x="0px" y="0px"
	 viewBox="0 0 512 512" width="25px" height="25px" style="enable-background:new 0 0 512 512;" xml:space="preserve">
<g>
	<g>
		<path d="M331.4,267.998c-12.8-10.65-34.278-20.122-64.401-28.399V126.797c14.123,0.802,25.6,4.403,34.398,10.803
			c11.46,8.55,17.604,21.197,18.398,37.999c0,4.548,1.323,8.149,4.002,10.803c2.398,2.398,5.197,3.601,8.397,3.601
			c3.465,0,6.263-1.203,8.397-3.601c2.662-2.654,4.002-6.246,4.002-10.803c0-20.804-7.074-37.598-21.197-50.398
			c-14.14-12.527-32.939-19.328-56.397-20.403V83.2c0-6.647-3.473-10.001-10.402-10.001c-6.673,0-10.001,3.354-10.001,10.001v21.598
			c-23.475,0.802-42.675,7.603-57.6,20.403c-16.273,14.148-24.397,32.947-24.397,56.397c0,20.002,7.202,36.147,21.598,48.401
			c13.065,11.204,33.203,20.002,60.399,26.402v120.798c-19.2-1.852-34.133-7.202-44.8-16
			c-13.875-11.725-20.676-29.047-20.403-52.002c0-4.523-1.203-8.004-3.601-10.402c-2.133-2.398-4.804-3.601-8.004-3.601
			c-3.2,0-5.871,1.203-8.004,3.601c-2.398,2.398-3.601,5.871-3.601,10.402c0,32.273,9.463,55.876,28.399,70.801
			c13.867,10.402,33.86,16.802,59.998,19.2v29.201c0.017,6.929,3.345,10.402,10.018,10.402c6.929,0,10.402-3.473,10.402-10.402
			v-28.8c24.26-1.852,44.527-9.728,60.8-23.603c17.323-14.925,26.001-33.997,26.001-57.199
			C353.8,297.199,346.325,280.269,331.4,267.998z M246.596,233.993c-20.531-5.316-35.2-12.518-43.998-21.589
			c-8.533-8.798-12.8-20.002-12.8-33.604c0-16.529,6.4-29.602,19.2-39.202c10.402-7.723,22.929-12.126,37.598-13.201V233.993z
			 M307.003,362.402c-11.204,8.277-24.533,13.201-40.004,14.797V262.801c23.202,5.871,38.929,12.553,47.198,20.002
			c9.327,8.277,14.003,21.077,14.003,38.4C328.2,338.552,321.126,352.282,307.003,362.402z"/>
	</g>
</g>
<g>
	<g>
		<path d="M460.799,0h-409.6c-7.074,0-12.8,5.726-12.8,12.8v173.901l-16.546-16.546c-5.001-5.001-13.099-5.001-18.099,0
			c-5,5.001-5,13.099,0,18.099l38.4,38.4c2.492,2.5,5.769,3.746,9.045,3.746s6.554-1.246,9.054-3.746l38.4-38.4
			c5.001-5.001,5.001-13.099,0-18.099s-13.099-5.001-18.099,0l-16.555,16.546V25.6h384v204.8c0,7.074,5.726,12.8,12.8,12.8
			c7.074,0,12.8-5.726,12.8-12.8V12.8C473.599,5.726,467.874,0,460.799,0z"/>
	</g>
</g>
<g>
	<g>
		<path d="M508.253,323.746l-38.4-38.4c-2.5-2.5-5.777-3.746-9.054-3.746s-6.554,1.246-9.054,3.746l-38.4,38.4
			c-5,5-5,13.099,0,18.099c5.001,5,13.099,5,18.099,0l16.546-16.546V486.4h-384V281.6c0-7.074-5.726-12.8-12.8-12.8
			c-7.074,0-12.791,5.726-12.791,12.8v217.6c0,7.074,5.726,12.8,12.8,12.8h409.6c7.074,0,12.8-5.726,12.8-12.8V325.299
			l16.546,16.546c5,5,13.099,5,18.099,0C513.245,336.845,513.245,328.747,508.253,323.746z"/>
	</g>
</g>
<g>
</g>
<g>
</g>
<g>
</g>
<g>
</g>
<g>
</g>
<g>
</g>
<g>
</g>
<g>
</g>
<g>
</g>
<g>
</g>
<g>
</g>
<g>
</g>
<g>
</g>
<g>
</g>
<g>
</g>
</svg>
